<mxfile host="app.diagrams.net" agent="Mozilla/5.0 (Windows NT 10.0; Win64; x64) AppleWebKit/537.36 (KHTML, like Gecko) Chrome/130.0.0.0 Safari/537.36" version="25.0.1">
  <diagram name="Stránka-1" id="nJAkT83glEcDFNUhk3jb">
    <mxGraphModel dx="1050" dy="565" grid="1" gridSize="10" guides="1" tooltips="1" connect="1" arrows="1" fold="1" page="1" pageScale="1" pageWidth="827" pageHeight="1169" math="0" shadow="0">
      <root>
        <mxCell id="0" />
        <mxCell id="1" parent="0" />
        <mxCell id="4fedn4woxQRLk_rThtWv-6" style="edgeStyle=orthogonalEdgeStyle;rounded=0;orthogonalLoop=1;jettySize=auto;html=1;exitX=0.5;exitY=1;exitDx=0;exitDy=0;entryX=0.5;entryY=0;entryDx=0;entryDy=0;" edge="1" parent="1" source="4fedn4woxQRLk_rThtWv-1" target="4fedn4woxQRLk_rThtWv-5">
          <mxGeometry relative="1" as="geometry" />
        </mxCell>
        <mxCell id="4fedn4woxQRLk_rThtWv-1" value="" style="ellipse;whiteSpace=wrap;html=1;aspect=fixed;fillColor=#000000;" vertex="1" parent="1">
          <mxGeometry x="170" y="40" width="30" height="30" as="geometry" />
        </mxCell>
        <mxCell id="4fedn4woxQRLk_rThtWv-2" value="" style="ellipse;whiteSpace=wrap;html=1;aspect=fixed;" vertex="1" parent="1">
          <mxGeometry x="540" y="535" width="30" height="30" as="geometry" />
        </mxCell>
        <mxCell id="4fedn4woxQRLk_rThtWv-10" style="edgeStyle=orthogonalEdgeStyle;rounded=0;orthogonalLoop=1;jettySize=auto;html=1;exitX=0.5;exitY=1;exitDx=0;exitDy=0;entryX=0.5;entryY=0;entryDx=0;entryDy=0;" edge="1" parent="1" source="4fedn4woxQRLk_rThtWv-3" target="4fedn4woxQRLk_rThtWv-9">
          <mxGeometry relative="1" as="geometry" />
        </mxCell>
        <mxCell id="4fedn4woxQRLk_rThtWv-3" value="Průběh zápasu" style="rounded=1;whiteSpace=wrap;html=1;" vertex="1" parent="1">
          <mxGeometry x="125" y="310" width="120" height="60" as="geometry" />
        </mxCell>
        <mxCell id="4fedn4woxQRLk_rThtWv-8" style="edgeStyle=orthogonalEdgeStyle;rounded=0;orthogonalLoop=1;jettySize=auto;html=1;exitX=0.5;exitY=1;exitDx=0;exitDy=0;entryX=0.5;entryY=0;entryDx=0;entryDy=0;" edge="1" parent="1" source="4fedn4woxQRLk_rThtWv-4" target="4fedn4woxQRLk_rThtWv-3">
          <mxGeometry relative="1" as="geometry" />
        </mxCell>
        <mxCell id="4fedn4woxQRLk_rThtWv-4" value="Zapracování/zahřátí&lt;div&gt;před zápasem&lt;/div&gt;" style="rounded=1;whiteSpace=wrap;html=1;" vertex="1" parent="1">
          <mxGeometry x="125" y="210" width="120" height="60" as="geometry" />
        </mxCell>
        <mxCell id="4fedn4woxQRLk_rThtWv-7" style="edgeStyle=orthogonalEdgeStyle;rounded=0;orthogonalLoop=1;jettySize=auto;html=1;exitX=0.5;exitY=1;exitDx=0;exitDy=0;" edge="1" parent="1" source="4fedn4woxQRLk_rThtWv-5" target="4fedn4woxQRLk_rThtWv-4">
          <mxGeometry relative="1" as="geometry" />
        </mxCell>
        <mxCell id="4fedn4woxQRLk_rThtWv-5" value="Příchod na zápas" style="rounded=1;whiteSpace=wrap;html=1;" vertex="1" parent="1">
          <mxGeometry x="125" y="110" width="120" height="60" as="geometry" />
        </mxCell>
        <mxCell id="4fedn4woxQRLk_rThtWv-15" style="edgeStyle=orthogonalEdgeStyle;rounded=0;orthogonalLoop=1;jettySize=auto;html=1;exitX=0.5;exitY=1;exitDx=0;exitDy=0;entryX=0.5;entryY=0;entryDx=0;entryDy=0;" edge="1" parent="1" source="4fedn4woxQRLk_rThtWv-9" target="4fedn4woxQRLk_rThtWv-12">
          <mxGeometry relative="1" as="geometry" />
        </mxCell>
        <mxCell id="4fedn4woxQRLk_rThtWv-16" style="edgeStyle=orthogonalEdgeStyle;rounded=0;orthogonalLoop=1;jettySize=auto;html=1;exitX=1;exitY=0.5;exitDx=0;exitDy=0;" edge="1" parent="1" source="4fedn4woxQRLk_rThtWv-9" target="4fedn4woxQRLk_rThtWv-13">
          <mxGeometry relative="1" as="geometry" />
        </mxCell>
        <mxCell id="4fedn4woxQRLk_rThtWv-9" value="Výhra?" style="rhombus;whiteSpace=wrap;html=1;" vertex="1" parent="1">
          <mxGeometry x="145" y="400" width="80" height="80" as="geometry" />
        </mxCell>
        <mxCell id="4fedn4woxQRLk_rThtWv-19" style="edgeStyle=orthogonalEdgeStyle;rounded=0;orthogonalLoop=1;jettySize=auto;html=1;exitX=1;exitY=0.5;exitDx=0;exitDy=0;entryX=0;entryY=0.5;entryDx=0;entryDy=0;" edge="1" parent="1" source="4fedn4woxQRLk_rThtWv-11" target="4fedn4woxQRLk_rThtWv-2">
          <mxGeometry relative="1" as="geometry" />
        </mxCell>
        <mxCell id="4fedn4woxQRLk_rThtWv-11" value="Regenerace po zápase" style="rounded=1;whiteSpace=wrap;html=1;" vertex="1" parent="1">
          <mxGeometry x="330" y="520" width="120" height="60" as="geometry" />
        </mxCell>
        <mxCell id="4fedn4woxQRLk_rThtWv-17" style="edgeStyle=orthogonalEdgeStyle;rounded=0;orthogonalLoop=1;jettySize=auto;html=1;exitX=1;exitY=0.5;exitDx=0;exitDy=0;entryX=0;entryY=0.5;entryDx=0;entryDy=0;" edge="1" parent="1" source="4fedn4woxQRLk_rThtWv-12" target="4fedn4woxQRLk_rThtWv-11">
          <mxGeometry relative="1" as="geometry" />
        </mxCell>
        <mxCell id="4fedn4woxQRLk_rThtWv-12" value="Oslava zápasu" style="rounded=1;whiteSpace=wrap;html=1;" vertex="1" parent="1">
          <mxGeometry x="125" y="520" width="120" height="60" as="geometry" />
        </mxCell>
        <mxCell id="4fedn4woxQRLk_rThtWv-18" style="edgeStyle=orthogonalEdgeStyle;rounded=0;orthogonalLoop=1;jettySize=auto;html=1;exitX=0.5;exitY=1;exitDx=0;exitDy=0;entryX=0.5;entryY=0;entryDx=0;entryDy=0;" edge="1" parent="1" source="4fedn4woxQRLk_rThtWv-13" target="4fedn4woxQRLk_rThtWv-11">
          <mxGeometry relative="1" as="geometry" />
        </mxCell>
        <mxCell id="4fedn4woxQRLk_rThtWv-13" value="Vyhodnocení chyb" style="rounded=1;whiteSpace=wrap;html=1;" vertex="1" parent="1">
          <mxGeometry x="330" y="410" width="120" height="60" as="geometry" />
        </mxCell>
        <mxCell id="4fedn4woxQRLk_rThtWv-14" value="" style="ellipse;whiteSpace=wrap;html=1;aspect=fixed;fillColor=#000000;" vertex="1" parent="1">
          <mxGeometry x="545" y="540" width="20" height="20" as="geometry" />
        </mxCell>
        <mxCell id="4fedn4woxQRLk_rThtWv-20" value="ne" style="text;html=1;align=center;verticalAlign=middle;resizable=0;points=[];autosize=1;strokeColor=none;fillColor=none;" vertex="1" parent="1">
          <mxGeometry x="212" y="418" width="40" height="30" as="geometry" />
        </mxCell>
        <mxCell id="4fedn4woxQRLk_rThtWv-21" value="Ano" style="text;html=1;align=center;verticalAlign=middle;resizable=0;points=[];autosize=1;strokeColor=none;fillColor=none;" vertex="1" parent="1">
          <mxGeometry x="178" y="468" width="40" height="30" as="geometry" />
        </mxCell>
      </root>
    </mxGraphModel>
  </diagram>
</mxfile>
